,
Brought to you by  http://www.scenetime.com/signup.php
 
 Hottest scene tracker on the net !!!   
 
No fake torrents from scenebalance 
shame on those who comment fake before downloading my torrents

    seed back for speed


 



...................................NFO:.................................................General 
Complete name : Sisanje.avi 
Format : AVI 
Format/Info : Audio Video Interleave 
File size : 702 MiB 
Duration : 1h 37mn 
Overall bit rate : 1 006 Kbps 
Writing application : VirtualDubMod 1.5.4.1 (build 2178/release) 
Writing library : VirtualDubMod build 2178/release 

Video 
ID : 0 
Format : MPEG-4 Visual 
Format profile : Advanced Simple@L5 
Format settings, BVOP : Yes 
Format settings, QPel : No 
Format settings, GMC : No warppoints 
Format settings, Matrix : Custom 
Codec ID : XVID 
Codec ID/Hint : XviD 
Duration : 1h 37mn 
Bit rate : 880 Kbps 
Width : 640 pixels 
Height : 368 pixels 
Display aspect ratio : 16:9 
Frame rate : 25.000 fps 
Resolution : 8 bits 
Colorimetry : 4:2:0 
Scan type : Progressive 
Bits/(Pixel*Frame) : 0.149 
Stream size : 614 MiB (87%) 
Writing library : XviD 1.2.1 (UTC 2008-12-04) 

Audio 
ID : 1 
Format : MPEG Audio 
Format version : Version 1 
Format profile : Layer 3 
Mode : Joint stereo / MS Stereo 
Codec ID : 55 
Codec ID/Hint : MP3 
Duration : 1h 37mn 
Bit rate mode : Variable 
Bit rate : 113 Kbps 
Nominal bit rate : 128 Kbps 
Channel(s) : 2 channels 
Sampling rate : 48.0 KHz 
Stream size : 79.1 MiB (11%) 
Alignment : Aligned on interleaves 
Interleave, duration : 24 ms (0.60 video frame) 
Interleave, preload duration : 162 ms 
Writing library : LAME3.98r 
Encoding settings : -m j -V 4 -q 2 -lowpass 17 --abr 128 
Language : Serbian